<?xml version="1.0" standalone="no"?>
<!DOCTYPE svg PUBLIC "-//W3C//DTD SVG 20010904//EN"
 "http://www.w3.org/TR/2001/REC-SVG-20010904/DTD/svg10.dtd">
<svg version="1.0" xmlns="http://www.w3.org/2000/svg"
 width="512.000000pt" height="512.000000pt" viewBox="0 0 512.000000 512.000000"
 preserveAspectRatio="xMidYMid meet">

<g transform="translate(0.000000,512.000000) scale(0.100000,-0.100000)"
fill="#000000" stroke="none">
<path d="M2400 4840 c-808 -56 -1525 -532 -1890 -1254 -163 -323 -240 -651
-240 -1026 0 -375 77 -703 240 -1026 116 -230 249 -411 436 -596 184 -182 355
-305 581 -419 326 -164 660 -243 1033 -243 371 0 662 67 995 229 461 224 817
579 1049 1046 233 469 296 1006 180 1527 -71 319 -238 662 -448 922 -203 251
-458 456 -757 604 -362 180 -777 263 -1179 236z m1602 -982 c243 -278 389
-566 463 -918 33 -154 45 -449 25 -607 -81 -664 -484 -1229 -1085 -1522 -270
-132 -538 -193 -850 -192 -397 0 -760 110 -1086 330 -114 76 -279 215 -279
234 0 7 152 164 337 349 l337 337 50 -43 c192 -162 399 -237 650 -237 266 0
514 105 692 293 169 179 258 386 271 633 12 240 -63 466 -219 661 l-61 76 339
339 c186 186 342 339 346 339 3 0 35 -33 70 -72z m-1298 -653 c233 -49 438
-248 502 -485 11 -41 17 -102 17 -165 0 -63 -6 -124 -17 -165 -48 -180 -185
-348 -347 -428 -194 -96 -400 -96 -597 -1 -161 78 -299 249 -348 429 -23 87
-23 244 -1 330 33 121 83 207 177 300 134 135 281 198 465 199 44 0 111 -6
149 -14z"/>
<path d="M2470 2881 c-92 -30 -163 -90 -207 -174 -25 -46 -28 -63 -28 -147 0
-84 3 -101 28 -147 34 -66 84 -116 150 -150 46 -25 63 -28 147 -28 83 0 101 3
145 27 64 33 120 89 153 153 24 44 27 62 27 145 0 84 -3 101 -28 147 -60 115
-154 175 -282 179 -44 2 -91 0 -105 -5z"/>
</g>
</svg>
