<?xml version="1.0" encoding="utf-8"?>
<!-- Svg Vector Icons : http://www.onlinewebfonts.com/icon -->
<!DOCTYPE svg PUBLIC "-//W3C//DTD SVG 1.1//EN" "http://www.w3.org/Graphics/SVG/1.1/DTD/svg11.dtd">
<svg version="1.1" xmlns="http://www.w3.org/2000/svg" xmlns:xlink="http://www.w3.org/1999/xlink" x="0px" y="0px" viewBox="0 0 1000 1000" enable-background="new 0 0 1000 1000" xml:space="preserve">
<metadata> Svg Vector Icons : http://www.onlinewebfonts.com/icon </metadata>
<g><g transform="translate(0.000000,512.000000) scale(0.100000,-0.100000)"><path d="M4646.2,5003.9c-30.6-3.8-139.7-17.2-239.2-28.7c-631.4-70.8-1356.6-325.3-1932.5-675.4c-593.1-361.6-1163.3-914.6-1565.1-1513.5c-70.8-105.2-202.8-338.7-292.8-516.6c-688.8-1371.9-688.8-2933.2,0-4305.1c271.7-537.7,558.7-931.8,989.2-1348.9c771.1-750,1722-1213.1,2801.2-1360.4c103.3-15.3,359.7-24.9,593.2-24.9c432.4,0,621.9,17.2,1004.5,97.6c482.2,99.5,1079.2,338.7,1521.1,606.5c597,365.4,1169.1,918.4,1570.9,1523c296.6,443.9,574,1102.1,694.6,1651.2c233.4,1050.5,88,2171.7-407.6,3160.9c-271.7,537.7-558.7,931.8-989.2,1348.9c-757.7,736.7-1685.7,1193.9-2734.2,1350.8C5478.5,4996.3,4766.7,5021.1,4646.2,5003.9z M5564.6,4630.8C6546.2,4510.3,7457,4075.9,8163,3389c478.3-463,836.2-996.9,1073.4-1603.4c67-170.3,183.7-549.1,183.7-595.1c0-15.3-292.7-21-1105.9-21H7208.2l-34.5,72.7c-78.4,162.6-262.1,407.6-442,587.4c-354,355.9-780.7,585.5-1278.1,692.6c-216.2,45.9-690.7,45.9-907,0c-338.7-72.7-686.9-222-962.4-417.1c-279.4-197.1-631.4-597-757.7-862.9l-34.4-72.7H1684.3H576.4l13.4,72.7c30.6,164.6,189.4,598.9,311.9,851.5c231.5,480.3,465,815.1,826.6,1186.3c451.6,466.9,947.1,803.6,1549.8,1052.4c378.8,156.9,918.4,285.1,1348.9,319.5C4860.5,4669.1,5329.3,4659.5,5564.6,4630.8z M5243.2,2200.8c717.5-80.4,1343.2-526.2,1641.7-1169.1c105.2-231.5-42.1-208.6,1370-212.4l1230.3-3.8l19.1-76.5c24.9-99.5,24.9-1144.2,0-1243.7l-19.1-76.5L8254.8-585c-1412.1-3.8-1264.7,19.1-1370-212.4c-271.7-587.4-809.4-1006.4-1463.7-1144.2c-222-45.9-623.8-45.9-841.9,0C3926.8-1803.9,3436.9-1426.9,3127-822.3c-53.6,105.2-109.1,199-122.5,206.6c-11.5,7.7-577.8,19.1-1257.1,24.9l-1232.2,9.6l-15.3,76.5c-47.8,220-47.8,1023.7,0,1243.7l15.3,76.5l1232.2,9.6c679.2,5.7,1245.6,17.2,1257.1,24.9c13.4,7.7,68.9,103.3,124.4,208.6c281.3,549.1,717.5,912.7,1291.5,1077.2C4697.9,2214.2,4944.7,2235.3,5243.2,2200.8z M2826.6-1006c78.4-164.6,262.1-409.5,442-589.3c658.2-660.1,1590-895.5,2451-619.9c386.5,122.5,721.3,329.1,1012.2,619.9c179.9,179.9,363.5,424.8,442,589.3l34.5,70.8h1107.8h1107.9l-13.4-70.8c-57.4-319.5-373.1-1035.1-612.3-1392.9c-357.8-535.7-847.6-1012.2-1387.2-1348.9c-231.5-145.4-660.1-348.2-928-438.2c-834.2-281.3-1775.6-317.6-2632.8-97.6C2773-4008.1,1827.8-3336.5,1202.1-2398.9C955.3-2029.6,651.1-1337,589.8-1006l-13.4,70.8h1107.9h1107.8L2826.6-1006z"/><path d="M4588.8,1812.4c-95.7-24.9-252.6-84.2-348.2-132c-876.3-440.1-1234.1-1486.7-797.9-2330.5c187.5-361.6,442-612.3,801.7-792.1c302.3-149.2,399.9-172.2,755.8-172.2c350.1,0,449.6,23,738.6,162.6c373.1,179.9,637.2,442,820.8,813.2c149.2,302.3,172.2,399.9,172.2,755.8c0,355.9-23,453.5-172.2,755.8c-179.9,359.7-430.5,614.2-792.1,801.7c-252.6,130.1-480.3,183.7-774.9,183.7C4814.6,1856.4,4720.8,1846.9,4588.8,1812.4z M5390.5,1466.1C5859.3,1336,6219,972.4,6351,499.8c47.8-172.2,49.8-591.2,1.9-763.4c-133.9-478.3-493.7-838.1-970.1-970.1c-174.1-49.8-591.2-49.8-765.4,0c-388.4,107.1-711.8,376.9-878.2,727.1c-82.3,176-116.7,321.4-130.1,547.2c-22.9,426.7,109.1,786.4,396.1,1071.5c193.3,195.2,405.6,310,683.1,371.2C4850.9,1521.6,5227.9,1512,5390.5,1466.1z"/><path d="M4755.3,1131.3c-78.4-21-189.4-65.1-248.7-99.5c-139.7-78.4-342.5-281.3-420.9-419c-70.8-126.3-137.8-365.5-137.8-495.6c0-130.1,67-369.3,137.8-495.6c86.1-153.1,304.2-361.6,457.3-436.3c233.4-114.8,442-143.5,665.8-91.8c398,93.8,721.3,417.1,815.1,815.1c36.4,155,36.4,262.1,0,417.1c-47.8,199-137.8,359.7-287,510.9c-160.7,162.6-298.5,243-499.4,294.7C5055.7,1179.1,4935.1,1179.1,4755.3,1131.3z M5281.4,763.9c285.1-105.2,459.2-434.3,405.6-765.4c-51.6-315.7-254.5-518.5-566.3-568.3c-338.7-53.6-660.1,120.5-771.1,415.2c-59.3,153.1-59.3,392.2-1.9,543.4C4481.6,740.9,4896.8,905.5,5281.4,763.9z"/></g></g>
</svg>